<?xml version="1.0" encoding="utf-8"?>
<!-- Generator: Adobe Illustrator 19.2.1, SVG Export Plug-In . SVG Version: 6.00 Build 0)  -->
<svg version="1.1" id="Layer_1" xmlns="http://www.w3.org/2000/svg" xmlns:xlink="http://www.w3.org/1999/xlink" x="0px" y="0px"
	 viewBox="0 0 950.9 437.3" style="enable-background:new 0 0 950.9 437.3;" xml:space="preserve">
<style type="text/css">
	.st0{fill:#E4E6E8;}
	.st1{fill:#6BC2DA;}
	.st2{fill:#221F20;}
	.st3{fill:#151814;}
	.st4{fill:#689EB5;}
	.st5{fill:#8B8889;}
	.st6{fill:#414143;}
	.st7{fill:#231F20;}
	.st8{fill:#86CEE7;}
	.st9{fill:#F5F6F7;}
	.st10{fill:#2E2D2F;}
	.st11{fill:#D0D1D3;}
	.st12{fill:#424244;}
	.st13{fill:#CECFD1;}
</style>
<path class="st0" d="M755.3,202.4c1.8,1.1,3.9,0.8,5.9,0.8c9.5,0,19-0.1,28.5,0c9,0.1,12.4,3.5,12.4,12.3c0,16.7,0,33.3,0,50
	c0,18.3,0.1,36.6-0.1,55c-0.1,4.5,1,6,5.8,5.9c20.6-0.3,41.3-0.1,61.9-0.1c7,0,8.4,1.4,8.4,8.5c0.1,17.8,0.1,35.6,0.1,53.4
	c-0.3,2.7,0.3,5.8-3.4,6.8c-1.6-1.2-3.5-0.7-5.3-0.7c-60,0-119.9,0-179.9,0c-1.8,0-3.7-0.4-5.4,0.6c-5.1-1.2-7.9-4.5-8.5-9.6
	c0.1-9.1-0.2-18.3,0.3-27.4c0.2-4.8-1.6-5.8-6-5.7c-21.1,0.2-42.2,0.1-63.3,0.1c-8.1,0-16.3,0-24.4,0c-1.6,0-4-0.5-3.9,1.8
	c0,6.1-1.2,12.2,0.7,18.2c1.2,0.1,2.3,0.2,3.5,0.2c12.4,0.2,15.9,3.7,15.7,16.1c-0.2,7.9-4,11.8-12.1,11.9c-41.8,0-83.5,0-125.3,0
	c-7,0-11.6-3.6-12.7-9.5c-1.6-9,1.6-15.5,8.7-17.9c2.6-0.9,5.3-0.5,7.9-0.5c2.2,0,3.6-0.5,3.1-3.1c0-4.3,0-8.6,0.2-13
	c0.1-2.8-0.7-4.2-3.9-4.2c-37.1,0.1-74.2,0.1-111.2,0c-3.1,0-4.1,1.2-4,4.1c0.2,4.6,0.1,9.3,0.2,14c-0.1,4.2,0,8.3-0.2,12.5
	c-0.3,8.6-5.3,13.5-13.8,13.5c-65.6,0-131.2,0-196.7,0c-8.2,0-13.9-5.7-14.1-14c-0.1-4.3-0.1-8.7-0.2-13c0-42.7,0-85.3,0.1-128
	c0-11.9,4.3-16.1,16.3-16.1c40.8,0,81.6,0,122.5,0c0,0,0.2,0.3,0.2,0.3c1.4,1.2,2.7,1.3,4-0.2c6-0.1,11.9-0.3,17.9-0.4
	c0.4,0.1,0.7,0.3,1.1,0.4c1.1,1.3,2.7,1,4.2,1c15.3,0,30.7,0,46,0c1.3,0,2.7,0.2,3.8-0.8c6.3,2.5,9,6.4,9,13.7
	c0.1,16,0.1,32.1,0.2,48.1c0,7,0,14,0,21c-0.2,0.8,0.2,1.3,0.9,1.5c1,2,2.8,1.4,4.4,1.4c105.4,0,210.8,0,316.2,0
	c1.6,0,3.4,0.6,4.4-1.4c1.2-7.7,0.9-15.5,0.2-23.2c0.2-0.4,0.5-0.9,0.7-1.3c1.5-1.3,1.1-3,1.1-4.6c0-20.3,0-40.5,0-60.8
	c0-1.6,0.4-3.4-1.1-4.6c-0.1-1-0.3-2-0.4-2.9c0.9-6.1,4.9-8.7,10.5-9.4c15.3,0,30.7-0.1,46-0.1c7.3,0.1,14.6,0.2,21.9,0.4
	c0.1,0.1,0.2,0.1,0.3,0.2c-0.1-0.1-0.2-0.1-0.3-0.2c0.1-0.3,0.3-0.5,0.5-0.7l0.4,0.1L755.3,202.4z M867,391.3
	c-0.1-0.3-0.1-0.7-0.2-1c0.1-19.1,0.1-38.2,0.2-57.3c0-0.8-0.5-1.5-0.7-2.3c-1.6-2.2-3.9-1.5-6-1.5c-21.2,0-42.3,0-63.5,0
	c-2.3,0-4.6,0-7.8,0c1.5,0.8,2.2,1.2,3,1.5c-5.2-0.7-6,1.9-5.9,6.5c0.2,18,0,35.9,0,53.9c0.5,2.3,2.3,2,3.9,2c24.4,0,48.7,0,73.1,0
	C864.7,393.3,866.5,393.6,867,391.3z M142.8,242.3c-2.2,0.7-1.8,2.6-1.8,4.2c0,42.6,0,85.2,0,127.9c0,1.6-0.4,3.5,1.9,4
	c61.5,0,122.9,0,184.4,0.1c4,0,4.5-1.3,4.5-4.8c-0.1-42.5-0.1-84.9-0.1-127.4c0-1.6,0.6-3.4-0.9-4.7c-0.9-1.8-2.6-1.2-4-1.2
	c-59.5,0-119,0-178.5,0c-1.6,0-3.4-0.6-4.4,1.4C143.6,241.9,143.2,242.1,142.8,242.3z M688.6,219.2c-2,0.9-1.5,2.8-1.5,4.3
	c0,50.1,0,100.3,0,150.4c0,1.6-0.6,3.5,1.5,4.3c0.6,0.3,1.2,0.8,1.7,0.8c27.3,0,54.5,0,81.8,0.1c2.8,0,2.8-1.4,2.8-3.4
	c-0.1-14.1-0.1-28.3-0.2-42.4c0.9-5.7,2.3-7.4,8.2-6.8c5.4,0.5,6.3-1.5,6.1-6.3c-0.4-9.5-0.1-19-0.1-28.5
	c-0.1-22.8-0.1-45.6-0.2-68.4c0.8-3.5-0.2-4.8-4.2-4.8c-30.5,0.2-61.1,0.1-91.6,0.1C691.4,218.6,689.8,218,688.6,219.2z M342,309.6
	c-2.9,0.6-4.7,2.4-4.7,5.1c0,2.9,2,4.6,4.9,4.4c2.6-0.1,4.9-1.2,4.8-4.5C346.9,311.4,344.5,310.3,342,309.6z M779,360.5
	c0,1-0.1,1.7,0,2.3c0.2,1.3-0.8,3.6,1.2,3.7c2.2,0,1.6-2.4,1.8-3.9c0-0.5,0.1-1,0-1.5c-0.6-2.2,1.4-6.1-1.6-6.1
	C777.7,355,779.7,358.9,779,360.5z"/>
<path class="st1" d="M675.8,385.3c0.6,5.2,3.3,8.5,8.5,9.6c1.3,0.1,2.6,0.4,4,0.4c30.3,0,60.6,0,90.8,0c1.4,1.3,3.2,0.8,4.8,0.8
	c28.4,0,56.9,0,85.3,0c1.6,0,3.4,0.4,4.8-0.8c0.3,0,0.6-0.1,0.9-0.2c3.7-1,3.1-4.1,3.4-6.8c1.7-4.2,0.6-8.5,0.8-12.8
	c0.2-6.5,0.1-6.5,6.3-5.3c14.3,2.8,22.7,17,16.7,30.1c-4,8.8-11.9,13.7-21.9,14c-6.8,0.2-13.7,0-20.5,0c-264.1,0-528.1,0-792.2,0
	c-8.4,0-16.2-1.5-22-8.4c-9.3-11-5.5-28,7.6-34c2.3-1,4.7-1.7,7-2.6c0.1,4.7,0.1,9.3,0.2,14c0.2,8.6,4.5,12.9,13,13
	c11,0.1,22,0.1,33,0c6.6,0,9.9-2.5,12.1-8.9c1.8-4.2,0.7-8.5,0.7-12.8c0-3.8,1.2-5.7,5.1-5.3c0.1,4.3,0.1,8.7,0.2,13
	c0.2,8.3,6,14,14.1,14c65.6,0,131.2,0,196.7,0c8.5,0,13.5-4.9,13.8-13.5c0.2-4.2,0.1-8.3,0.2-12.5c1.8-1.1,3.8-1,5.8-1
	c37.6,0,75.3,0,112.9,0c0.5,2.6-0.9,3.1-3.1,3.1c-2.6,0-5.3-0.4-7.9,0.5c-7.1,2.4-10.2,8.9-8.7,17.9c1,5.9,5.7,9.5,12.7,9.5
	c41.8,0,83.5,0,125.3,0c8,0,11.9-4,12.1-11.9c0.2-12.4-3.2-16-15.7-16.1c-1.2,0-2.3-0.1-3.5-0.2c-0.1-2.6,1.5-2.9,3.6-2.9
	c29.5,0,59,0,88.5,0c3.1,0,4,1.2,4,4.2C675.1,377.4,674.2,381.4,675.8,385.3z"/>
<path class="st2" d="M741,24.1c5.6,1.2,10.7,3,12.8,9.2c-0.1,0.1-0.3,0.3-0.2,0.3c0.1,0.2,0.3,0.4,0.4,0.7c0,0,0.3-0.1,0.3-0.1
	c-0.1,2.7-0.2,5.4-0.3,8.1c-1.5,1.5-0.9,3.5-0.9,5.2c0,47.5,0,95,0,142.5c0,1.8-0.5,3.7,0.9,5.2c0,0.7,0,1.4,0,2
	c-1,3.3-3.2,4.3-6.6,4.1c-5.1-0.3-10.2-0.1-15.3-0.1c0,0-0.2,0-0.2,0c0-49.8,0-99.6,0.2-149.5c0-4-1.7-4.6-5.1-4.6
	c-145.6,0.1-291.3,0.1-436.9,0c-3.9,0-5.1,1.1-5.1,5.1c0.1,57,0.1,114,0.1,171c-4.8,0-9.6,0-14.5,0c-6.6,0-6.6,0-6.6-6.5
	c0-58.7,0-117.4,0-176.2c0-2.1,0.6-4.3-0.8-6.3c1.7-7.3,7.5-9.1,13.7-10.3c0.7,0.1,1.4,0.2,2.1,0.4c1.3,1.1,2.6,1.1,3.9,0
	c1.5-0.1,3-0.2,4.5-0.2c143.2,0,286.4,0,429.6,0c1.7,0,3.3,0.1,5,0.2c3,1.3,5.9,1.3,8.9,0C734.3,24.3,737.7,24.2,741,24.1z"/>
<path class="st0" d="M118.2,387.3c-2.2,6.4-5.5,8.9-12.1,8.9c-11,0-22,0.1-33,0c-8.5,0-12.8-4.3-13-13c-0.1-4.7-0.1-9.3-0.2-14
	c0-22.6,0.1-45.3,0.1-67.9c0-10.3,4.6-14.9,14.8-15c9.5,0,19,0,28.5,0c10.8,0,14.8,3.9,14.8,14.5
	C118.2,329.7,118.2,358.5,118.2,387.3z M65.6,302.3c-2.2,0.8-1.6,2.7-1.6,4.2c0,22.5,0,45,0,67.4c0,1.6-0.6,3.5,1.6,4.2
	c0.2,2.9,2.5,2.1,4.1,2.1c13.3,0,26.6-0.1,39.9,0.1c3.2,0,4.2-0.7,4.2-4.1c-0.2-24-0.1-47.9-0.1-71.9c0-1.6,0.5-3.4-1.7-4.1
	c-1.7-1.6-3.4-1.6-5.1,0c-6.6,0.5-13.2,0.5-19.9,0c-4-1.8-8.1-1.8-12.1,0c-0.6,0-1.2,0-1.9,0c-1.4-1.5-2.8-1.5-4.1,0
	c-0.6,0-1.3,0-1.9,0c-0.5-0.5-0.8-0.3-1,0.2C65.9,301.2,65.8,301.8,65.6,302.3z M92.9,388.6c-0.1-2.8-2-3.8-4.2-4
	c-2.1-0.2-3.4,1.4-3.6,3.4c-0.2,2.5,1.3,4.1,3.8,4.2C91.2,392.2,92.5,390.7,92.9,388.6z"/>
<path class="st3" d="M263.2,34.4c1.4,1.9,0.8,4.2,0.8,6.3c0,58.7,0,117.4,0,176.2c0,6.4,0,6.5,6.6,6.5c4.8,0,9.6,0,14.5,0
	c-0.1,0.5-0.1,1-0.2,1.5c-6,0.1-11.9,0.3-17.9,0.4c-0.3-0.2-0.5-0.2-0.8-0.2c-1.1-0.3-2.1-0.5-3.2-0.8c-0.1-0.3-0.1-0.6-0.2-0.9
	c0.1-7.3,0.2-14.6,0.2-21.9c0-55.7-0.1-111.4-0.1-167.1L263.2,34.4z"/>
<path class="st4" d="M262.9,34.3c0,55.7,0.1,111.4,0.1,167.1c0,7.3-0.2,14.6-0.2,21.9c-0.3-0.3-0.5-0.6-0.8-0.9
	c0-60.4,0-120.7,0.1-181.1c0-2.3,0.2-4.6,0.2-7C262.6,34.3,262.8,34.3,262.9,34.3z"/>
<path class="st4" d="M754,42.3c0.1-2.7,0.2-5.4,0.3-8.1c0.3,0,0.5,0,0.8,0.1c0,40,0,79.9,0,119.9c0,15.6,0.1,31.3,0.1,46.9
	c0,0.4,0,0.8,0,1.3c0,0-0.4,0.2-0.4,0.2s-0.4-0.1-0.4-0.1c-0.2-1.7-0.3-3.5-0.5-5.2c0-0.7,0-1.4,0-2c0.1-32.8,0.2-65.7,0.2-98.5
	C754.1,78.6,754,60.5,754,42.3z"/>
<path class="st5" d="M263,224.2c1.1,0.3,2.1,0.5,3.2,0.8c-1.1,0.1-2.1,0.2-3.2,0.4c0,0-0.2-0.3-0.2-0.3
	C262.8,224.8,262.8,224.5,263,224.2z"/>
<path class="st3" d="M754,34.3c-0.1-0.2-0.3-0.4-0.4-0.7c0-0.1,0.2-0.2,0.2-0.3C753.9,33.6,753.9,34,754,34.3z"/>
<path class="st6" d="M284.9,224.8c0.1-0.5,0.1-1,0.2-1.5c0-57,0-114-0.1-171c0-4,1.2-5.1,5.1-5.1c145.6,0.1,291.3,0.1,436.9,0
	c3.4,0,5.1,0.5,5.1,4.6c-0.2,49.8-0.1,99.6-0.2,149.5c-13.6,0-27.1,0-40.7,0.1c-1.8,0-4.1-1-5.2,1.6c-5.7,0.7-9.7,3.3-10.5,9.4
	c-2.1,0.9-1.5,2.8-1.5,4.3c0,23.6,0,47.1,0,70.7l0,0.1c-2,0-4-0.1-6-0.1c-106.3,0-212.6,0-318.9,0c-0.1-16-0.1-32.1-0.2-48.1
	c0-7.3-2.7-11.3-9-13.7c-0.3-0.2-0.7-0.4-1-0.5c-0.6-2-2.3-1.6-3.7-1.6c-15,0-29.9,0-44.9,0c-1.3,0-2.7-0.2-3.4,1.5
	c-0.4,0.2-0.7,0.3-1.1,0.5C285.6,225.1,285.3,225,284.9,224.8z M547,154.3l-0.4-0.1c-1.8,0.7-1.6,2.3-1.6,3.8c0,14.5,0,29.1,0,43.6
	c0,1.5-0.3,3.1,1.7,3.7c0.2,0.7,0.4,1.4,0.6,2.1c3.6,2.2,4.5,2.2,6.8,0c0-0.7,0-1.3,0-2c0-0.3,0-0.7,0-1c0.1-15.8,0.1-31.5,0.3-47.3
	c0-3.1-1.3-4.3-4.3-3.6C548.9,153.5,547.5,152.4,547,154.3z M562.8,153.2c-2.4,0.9-1.7,2.9-1.7,4.7c0,15.3,0,30.6,0,45.8
	c0,1.5-0.7,3.4,1.2,4.5c5.9,2.2,7.7,1.1,7.8-4.9c0-10,0-19.9,0-29.9c2.9,6.9,4.9,13.8,7.1,20.7c1.3,4.1,2.6,8.2,4.1,12.2
	c1.1,3,4,2.4,6.4,2.7c2.2,0.2,2.4-1.2,2.5-2.8c0.1-0.1,0.3-0.2,0.3-0.3c-0.1-0.2-0.2-0.4-0.3-0.7c0-16.3,0-32.7,0-49
	c0.1-0.1,0.3-0.2,0.3-0.3c-0.1-0.2-0.2-0.5-0.4-0.7c-1.5-3.1-4.3-2.4-6.5-1.9c-2.3,0.6-1.1,3.1-1.2,4.8c-0.2,4.5,0,9,0,13.5
	c0,6,0,11.9,0,17.9c-4.3-10.3-7.6-20.7-10.7-31.2c-1.2-4-3.3-6-7.6-5C563.6,153.3,563.2,153.3,562.8,153.2z M618,193.3
	c-2,2.9-0.5,6.3-1.1,9.4c-6.6,1.3-9,0.4-9.9-4.7c-2-11.2-1.9-22.5,0.1-33.7c0.7-3.7,3.2-5.7,7.4-4.7c1.9,0.5,3.9,0.7,5.9,0.7
	c2.6,0.1,3.3-2,3.6-4c0.4-2.4-1.7-1.9-3-2.3c-1.9-0.5-3.9-0.9-5.8-1.3c-8.2-1.7-14.5,2.1-15.7,10.3c-1.9,12.1-1.9,24.2,0,36.3
	c0.9,5.9,5.2,9.6,11.3,10c4.2,0.3,8.3-0.3,12.4-0.8c2.4-0.3,2.9-1.3,2.9-3.5c-0.1-6.8,0.1-13.6-0.1-20.5c0-1.6,1.3-4.1-1.3-4.7
	c-2.4-0.5-5.1-0.7-6.3,2.3c-1.3,1-1.4,2-0.1,3C618,188,618,190.6,618,193.3z M509,180.6c0,8.3,0.1,16.6,0,25c0,2.5,0.6,3.6,3.3,3.6
	c4.5-0.1,9,0.3,13.5,0.1c6.1-0.3,10.3-3.9,11.3-9.9c1.9-12.2,1.8-24.5-0.1-36.7c-1-6.7-5.7-10.3-12.6-10.4c-4,0-8,0.5-12,0.5
	c-2.9,0-3.5,1.2-3.5,3.9C509.1,164.7,509,172.7,509,180.6z M500.3,181.5c-0.2-5.5-0.2-11-1.3-16.4c-1.8-8.7-5.8-12.7-13.3-12.9
	c-8-0.2-12.7,3.5-14.4,12.2c-2.2,11.5-2.2,23.2,0.1,34.7c1.4,6.9,6.4,10.4,13.8,10.3c7.5,0,12.1-3.6,13.6-10.6
	C500.1,193.2,500.1,187.3,500.3,181.5z M445.9,181.7c0.2-5.9-0.3-11.6,1.2-17.1c0.9-3.5,2.9-5.1,6.6-4.2c1.6,0.4,3.3,0.6,4.9,0.6
	c2.9,0.1,4.1-1.8,4.5-4.4c0.5-3.1-2.3-2.2-3.7-2.8c-1-0.5-2.3-0.5-3.4-0.8c-10-2.2-15.6,1.5-17.1,11.8c-1.6,11.2-1.4,22.5,0.1,33.8
	c0.3,2.3,1.1,4.3,2.7,6.2c5.3,6.1,11.9,4.4,18.5,3.7c4-0.4,3.3-2.9,3.2-5.3c-0.1-3.3-2.6-1.7-4.1-1.7c-1.6,0-3.3,0.3-5,0.5
	c-4.5,0.6-6.8-1.4-7.7-5.8C445.8,191.4,446.1,186.5,445.9,181.7z M418.3,153.8c-7.4-1.2-7.4-1.2-9.3,5.2c-0.4,1.3-0.8,2.5-1.2,3.8
	c-6.1,19-12.2,37.9-18.2,56.9c-0.4,1.2-2.1,2.6-0.3,3.9c2.1,1.5,6.6-0.3,7.5-2.9c1.8-5.3,3.5-10.7,5.3-16.1
	C407.4,187.6,412.8,170.7,418.3,153.8z M385,167.9c-4.8-1.3-7.1,0.5-10.1,4.2c-8,10-7.9,18.9-0.1,28.8c2.8,3.6,5.2,4.8,9.6,3.3
	c-2.4-4.2-4.4-8.3-6.9-11.9c-2.8-4-3.2-7.4-0.1-11.6C380.4,176.8,382.5,172.2,385,167.9z M632.9,204.4c4.8,1.2,7-0.4,9.7-3.8
	c8-10,7.5-19-0.4-28.7c-3.7-4.6-3.2-5-9.7-3.8c3,5.1,5.8,10.2,8.8,15.1c1.4,2.2,1.6,3.9,0.1,6.2
	C638.4,194.2,635.8,199.1,632.9,204.4z"/>
<path class="st6" d="M330.9,241.5c1.4,1.4,0.9,3.1,0.9,4.7c0,42.5,0,84.9,0.1,127.4c0,3.5-0.6,4.8-4.5,4.8
	c-61.5-0.2-122.9-0.1-184.4-0.1c-0.1-38.9-0.1-77.7-0.1-116.6c0-6.1,0.1-12.3,0.2-18.4c60.6,0,121.2,0,181.8-0.1
	c2.1,0,4.4,0.8,6.1-1l-0.3-0.3L330.9,241.5z M200,302.5c0.3,0.6,0.6,1.2,0.9,1.8c0.1,5.5,0.1,11,0.2,16.4c0,1.4-0.9,3.7,2,3.5
	c2.7-0.1,1.9-2.3,1.9-3.8c0.1-4.8,0.1-9.6,0-14.5c0-2-0.4-4.1,2.8-3.7c1.1,0.1,2-0.3,1.9-1.7c-0.1-1.4-1.2-1.4-2.2-1.4
	c-2.5,0-5-0.1-7.5,0c-1.3,0.1-3.4-1-3.5,1.5C196.6,303.4,198.9,301.9,200,302.5z M266.8,323.3c-0.3,0.2-0.7,0.4-1,0.6
	c0.4,0.1,0.8,0.2,1.2,0.3c3.1,0.6,4.1-0.8,4-3.9c-0.2-3.7-0.1-7.4-0.1-11.2c0.3-0.1,0.6-0.1,0.9-0.2c1.5,4.3,2.9,8.7,4.4,13
	c0.6,1.6,1.7,2.3,3.4,2.2c1.4-0.1,1.5-1.1,1.5-2.1c0-6.8,0-13.6,0-20.5c0-1.3-0.3-2.3-1.8-2.4c-1.9-0.1-2.1,1.1-2.1,2.6
	c0,3.9,0,7.7,0,11.6c-2.4-4-4.1-8.1-5.7-12.2c-0.6-1.4-1.5-2.1-3.1-1.9c-2.2,0.2-1.4,1.9-1.4,3.1
	C266.9,309.3,266.9,316.3,266.8,323.3z M224.5,324.4c3.2,0,6.3,0.2,9.5,0c5.8-0.4,8.6-6.6,5.2-11.4c-1-1.5-2.6-2.5-3.9-3.8
	c-1.8-1.7-5.2-2.6-4.6-5.3c0.6-3.3,3.9-1.1,6-1.4c0.9-0.2,1.7-0.4,1.9-1.3c0.1-0.4-0.1-1-0.3-1.3c-1.5-1.6-9.4-1.4-10.9,0.4
	c-2.5,3-1.5,5.9,1.1,8.4c1.9,1.8,4.1,3.4,6.1,5.1c1.7,1.5,2.1,3.4,1.3,5.5c-0.7,1.9-2.6,1.9-4.2,1.9c-3.5,0-7-0.1-10.5,0.1
	c-2.8,0.2-4.6-0.3-4-3.7c0.4-2.4-1.5-6.2,3.6-5.6c1.3,0.1,3.4,0.8,3.3-1.7c0-2.4-2.2-1.7-3.4-1.6c-4.7,0.6-4-2.8-3.4-5.1
	c0.7-2.4,3.4-0.8,5.2-1.2c0.9-0.2,2.1,0.1,2.2-1.4c0.1-1.4-0.8-1.5-1.8-1.8c-8-1.6-9.8-0.2-9.8,7.9c0,1.8,0,3.7,0,5.5
	C213.1,324.3,213.1,324.3,224.5,324.4z M285.5,311.4c0.1,0,0.1,0,0.2,0c0,1.3-0.1,2.7,0,4c0.5,9.8,4.5,9.5,12.3,8.8
	c1.4-0.1,2-0.9,2-2.3c0-3.2,0-6.3,0-9.5c0-1-0.2-2-1.6-2.1c-1.4-0.1-2.2,0.5-2.3,2c0,2,0,4-0.1,6c0,1.1,0.3,2.5-1.3,2.7
	c-1.5,0.3-3.3,0.3-4-1.3c-2-4.9-1.7-10.1-0.6-15.2c0.8-3.8,4.2-2,6.7-2.2c0.8-0.1,1.7-0.3,1.9-1.2c0.2-0.8-0.2-1.2-0.9-1.5
	c-5-3-11.3-0.1-12.1,5.8C285.6,307.4,285.6,309.4,285.5,311.4z M173.9,331.1c2.3,0.3,2.5-1.5,3.1-3.1c3.1-8.4,6.3-16.8,9.4-25.2
	c0.4-1.1,1.8-2.6-0.1-3.4c-1.5-0.6-2.7-0.1-3.4,1.8c-3.3,9.2-6.8,18.4-10.2,27.6C172.2,330.2,171.9,331.1,173.9,331.1z M251.1,313.3
	c0-2.7,0.1-5.3,0-8c-0.1-1.9,0.1-3.3,2.6-3c1,0.1,2.1,0,2.1-1.4c0-1.7-1.3-1.6-2.4-1.6c-3,0-6,0-9,0c-1.1,0-2,0.4-1.9,1.7
	c0,1.1,0.8,1.5,1.7,1.3c3.1-0.4,3,1.5,3,3.7c-0.1,5.1,0,10.3,0,15.4c0,1.2-0.4,2.8,1.7,2.9c2.2,0.1,2.3-1.4,2.3-3
	C251,318.6,251,316,251.1,313.3z M262.9,312.1c0-3.5,0-7,0-10.4c0-1.3-0.4-2.2-1.9-2.4c-1.5-0.1-2.1,0.6-2.1,2c0,7,0,13.9,0,20.9
	c0,1.4,0.7,2.1,2.1,2.1c1.7,0,1.8-1,1.8-2.3C262.9,318.7,262.9,315.4,262.9,312.1z M171.3,322c-7.6-5.8-6.4-11.3-0.4-17
	c-4.1,0.4-9.6,6-9.6,8.5C161.3,316.3,167,322,171.3,322z M303,305.3c7.5,5.6,5.2,11.1,0.2,16.8c3.7-0.2,8.9-5.8,9-8.5
	C312.2,310.9,307,305.3,303,305.3z"/>
<path class="st6" d="M788.7,223.3c0.1,22.8,0.2,45.6,0.2,68.4c0,9.5-0.3,19,0.1,28.5c0.2,4.8-0.7,6.8-6.1,6.3
	c-5.8-0.5-7.2,1.1-8.2,6.8c-2.5,0.8-1.7,3-1.7,4.7c-0.1,11.2-0.2,22.3,0.1,33.5c0.1,4.5-1.1,6-5.8,6c-23.8-0.2-47.6-0.2-71.4,0
	c-4.4,0-6-1-6-5.8c0.2-48.6,0.2-97.2,0-145.8c0-4.4,1.3-5.6,5.6-5.6c28.5,0.2,56.9,0.2,85.4,0C784.2,220.2,786.6,220.9,788.7,223.3z
	 M744.3,312.1c2.3-2.6,5.6-3.1,6.5-6.1c2-6,2.1-12.2-0.2-18.1c-1.8-4.7-9.7-5.1-12.6-1c-2.9,4.2-2.9,16.8,0.4,20.6
	c1.6,1.8,3.7,2.9,0.4,5c-1.1,0.7-0.9,2.2,0.8,2.4c5.3,0.5,10.6,1,15.9,1.4c1,0.1,2.1-0.1,2.2-1.4c0.1-1.8-1.2-1.6-2.4-1.7
	C751.9,312.9,748.5,312.5,744.3,312.1z M771.1,307.8c-1.8-7.1-3.7-14.2-5.5-21.2c-0.3-1.3-1.1-1.9-2.5-1.9c-1.4,0-2.1,0.6-2.5,1.9
	c-1.8,6.9-3.7,13.8-5.5,20.7c-0.4,1.3,0,2.3,1.6,2.5c1.3,0.1,2.3-0.1,2.5-1.7c0.2-1,0.5-1.9,0.7-2.9c0.3-1.6,0.8-2.8,2.8-2.8
	c1.9,0,3.2,0.3,3.6,2.5c0.2,1.3,0.5,2.6,1.1,3.8c0.6,1.2,1.9,1.3,3.1,1C771.6,309.5,771.5,308.6,771.1,307.8z M725.7,285.9
	c0-1.1-0.7-1.2-1.6-1.2c-2-0.2-2.5,1.2-3,2.7c-3.1,8.4-6.2,16.8-9.2,25.3c-0.4,1.2-2.2,2.8-0.1,3.7c1.8,0.8,2.8-0.4,3.5-2.3
	c3.1-8.8,6.5-17.4,9.7-26.1C725.2,287.2,725.4,286.6,725.7,285.9z M708,291.7c-2.8,0-7.6,4.4-8.2,7.7c-0.4,1.9,4,8,6,8.5
	c0.6,0.1,1.5,0.1,1.9-0.3c0.9-1-0.1-2-0.8-2.5c-4.4-3.4-3.6-6.8-0.4-10.4C707.3,293.9,708.3,293,708,291.7z M772.6,307.8
	c5.1-0.4,10.3-5.2,10.3-7.8c0-2.9-5.7-8.4-9.1-8.3C778.6,296.9,781.3,302.1,772.6,307.8z"/>
<path class="st7" d="M349.2,287.3c106.3,0,212.6,0,318.9,0c2,0,4,0.1,6,0.1c0,4.5-0.1,9-0.1,13.5c0,7.4,0,7.4-7.2,7.4
	c-102.1,0-204.1,0-306.2,0c-2.2,0-4.7-1-6.6,1.2c-1,0.5-2,0.5-3,0c-0.4-0.8-1-1.1-1.9-1.2C349.2,301.3,349.2,294.3,349.2,287.3z"/>
<path class="st6" d="M866.3,330.8c0.2,0.8,0.7,1.5,0.7,2.3c0,19.1-0.1,38.2-0.2,57.3c-25,0-50.1,0-75.1,0c-1.6,0-3.4-0.5-4.7,1
	c-0.3,0-0.7,0-1,0c0-18,0.3-36,0-53.9c-0.1-4.6,0.7-7.2,5.9-6.5C816.7,330.8,841.5,330.8,866.3,330.8z M827.9,352.1
	c-1.5,3.8-1.1,7.7-0.8,11.5c0.1,1.8,1.7,2.4,3.3,2.5c1.8,0.1,3.7-0.2,4.1-2.1c0.8-3.9,0.7-7.8-0.6-11.7c-1.7,2.8-0.9,5.8-1.2,8.6
	c-0.1,1.3,0,3-1.8,3.1c-2.2,0.1-1.9-1.8-1.9-3.3C828.8,357.9,829.6,354.9,827.9,352.1z M812.7,369.1c0.6,0.2,1.2,0.5,1.9,0.7
	c2.1-5.8,4.2-11.7,6.4-17.5c-0.6-0.2-1.2-0.5-1.8-0.7C817.1,357.5,814.9,363.3,812.7,369.1z M837.2,365.8c0.6,0.1,1.1,0.1,1.7,0.2
	c1.1-3.8,0.3-7.8,0.5-11.7c0.1-0.8,0.1-1.9-1-1.9c-1.6-0.1-1.2,1.2-1.2,2.1C837.2,358.3,837.2,362.1,837.2,365.8z M841.9,355.6
	c2.8,3,1.7,6.2,0.3,9.4C847.4,360.4,847.4,359,841.9,355.6z M811,355.6c-5.3,4.1-5.2,5.4,0.4,9.1C808.5,361.7,809,358.7,811,355.6z"
	/>
<path class="st8" d="M467.9,369.3c-37.6,0-75.3,0-112.9,0c-2,0-4-0.2-5.8,1c0-4.7,0-9.3-0.2-14c-0.1-2.9,0.8-4.1,4-4.1
	c37.1,0.1,74.2,0.1,111.2,0c3.2,0,4,1.4,3.9,4.2C467.9,360.7,467.9,365,467.9,369.3z"/>
<path class="st8" d="M675.8,385.3c-1.6-3.9-0.6-7.9-0.7-11.8c-0.1-2.9-0.9-4.2-4-4.2c-29.5,0.1-59,0.1-88.5,0
	c-2.1,0-3.7,0.4-3.6,2.9c-1.9-6-0.7-12.1-0.7-18.2c0-2.4,2.4-1.8,3.9-1.8c8.1,0,16.3,0,24.4,0c21.1,0,42.2,0.1,63.3-0.1
	c4.4,0,6.2,0.9,6,5.7C675.6,367,675.8,376.1,675.8,385.3z"/>
<path class="st9" d="M351,309.5c1,0.5,2,0.5,3,0c1.8,0.1,3.6,0.3,5.5,0.3c25.5,0,51,0,76.5,0c79.7,0,159.3,0,239,0.1
	c-1,2-2.8,1.4-4.4,1.4c-105.4,0-210.8,0-316.2,0c-1.6,0-3.4,0.6-4.4-1.4C350.4,309.7,350.7,309.6,351,309.5z"/>
<path class="st10" d="M788.7,223.3c-2.1-2.3-4.5-3.1-7.7-3.1c-28.5,0.2-56.9,0.2-85.4,0c-4.4,0-5.7,1.2-5.6,5.6
	c0.2,48.6,0.2,97.2,0,145.8c0,4.8,1.6,5.8,6,5.8c23.8-0.2,47.6-0.2,71.4,0c4.7,0,5.9-1.5,5.8-6c-0.3-11.1-0.1-22.3-0.1-33.5
	c0-1.7-0.8-3.8,1.7-4.7c0,14.1,0.1,28.3,0.2,42.4c0,2,0,3.4-2.8,3.4c-27.3-0.1-54.5,0-81.8-0.1c-0.6,0-1.2-0.5-1.7-0.8
	c0.1-1.8,0.2-3.6,0.2-5.5c0-38.7,0-77.5,0-116.2c0-12.5-0.1-24.9-0.2-37.4c1.3-1.2,2.8-0.7,4.3-0.7c30.5,0,61.1,0.1,91.6-0.1
	C788.4,218.4,789.4,219.7,788.7,223.3z"/>
<path class="st9" d="M144,241.8c0.9-2.1,2.8-1.4,4.4-1.4c59.5,0,119,0,178.5,0c1.4,0,3.1-0.6,4,1.2l-0.2,0.4c0,0,0.3,0.3,0.3,0.3
	c-1.6-0.1-3.3-0.3-4.9-0.3c-19.9,0-39.9,0-59.8,0C225.5,241.8,184.7,241.8,144,241.8z"/>
<path class="st3" d="M675,309.8c-79.7,0-159.3,0-239-0.1c-25.5,0-51,0-76.5,0c-1.8,0-3.6-0.2-5.5-0.3c1.9-2.2,4.4-1.2,6.6-1.2
	c102.1-0.1,204.1,0,306.2,0c7.2,0,7.2,0,7.2-7.4c0-4.5,0-9,0.1-13.5c0,0,0-0.1,0-0.1c0.4-0.2,0.7-0.5,1.1-0.7
	C675.9,294.4,676.2,302.1,675,309.8z"/>
<path class="st9" d="M688.6,219.2c0.1,12.5,0.2,24.9,0.2,37.4c0,38.7,0,77.5,0,116.2c0,1.8-0.1,3.6-0.2,5.5
	c-2.1-0.9-1.5-2.8-1.5-4.3c0-50.1,0-100.3,0-150.4C687,222,686.5,220.1,688.6,219.2z"/>
<path class="st9" d="M143,243.3c-0.1,6.1-0.2,12.3-0.2,18.4c0,38.9,0.1,77.7,0.1,116.6c-2.3-0.6-1.9-2.4-1.9-4
	c0-42.6,0-85.2,0-127.9c0-1.6-0.4-3.5,1.8-4.2C142.9,242.6,142.9,242.9,143,243.3z"/>
<path class="st9" d="M779,395.3c-30.3,0-60.6,0-90.8,0c-1.3,0-2.6-0.3-4-0.4c1.7-1,3.6-0.6,5.4-0.6c60,0,119.9,0,179.9,0
	c1.8,0,3.7-0.5,5.3,0.7c-0.3,0.2-0.6,0.2-0.9,0.2C842.3,395.3,810.7,395.3,779,395.3z"/>
<path class="st7" d="M143,243.3c-0.1-0.3-0.2-0.7-0.2-1c0.4-0.2,0.8-0.3,1.2-0.5c40.7,0,81.5,0.1,122.2,0.1c19.9,0,39.9,0,59.8,0
	c1.6,0,3.3,0.2,4.9,0.3c-1.8,1.9-4.1,1-6.1,1C264.2,243.3,203.6,243.3,143,243.3z"/>
<path class="st9" d="M786,391.3c0.3,0,0.7,0,1,0c26.7,0,53.3,0,80,0c-0.5,2.3-2.3,2-4,2c-24.4,0-48.7,0-73.1,0
	C788.3,393.3,786.5,393.6,786,391.3z"/>
<path class="st9" d="M866.3,330.8c-24.8,0-49.6,0-74.3,0c-0.7-0.4-1.4-0.7-3-1.5c3.2,0,5.5,0,7.8,0c21.2,0,42.3,0,63.5,0
	C862.3,329.3,864.7,328.6,866.3,330.8z"/>
<path class="st10" d="M675.2,286.6c-0.4,0.2-0.7,0.5-1.1,0.7c0-23.6,0-47.1,0-70.7c0-1.5-0.7-3.4,1.5-4.3c0.1,1,0.3,2,0.4,2.9
	c0,23.4,0,46.7,0,70.1C675.7,285.8,675.4,286.2,675.2,286.6z"/>
<path class="st10" d="M686,202.9c1.1-2.6,3.4-1.6,5.2-1.6c13.6-0.1,27.1-0.1,40.7-0.1c0,0,0.2,0,0.2,0c0,0.5,0,1,0,1.6
	C716.7,202.9,701.4,202.9,686,202.9z"/>
<path class="st7" d="M867,391.3c-26.7,0-53.3,0-80,0c1.3-1.4,3.1-0.9,4.7-1c25,0,50.1,0,75.1,0C866.9,390.7,866.9,391,867,391.3z"/>
<path class="st11" d="M342,309.6c2.5,0.7,4.9,1.8,4.9,5.1c0.1,3.2-2.2,4.3-4.8,4.5c-2.8,0.1-4.9-1.5-4.9-4.4
	C337.3,312,339.1,310.2,342,309.6z"/>
<path class="st9" d="M675.9,285.3c0-23.4,0-46.7,0-70.1c1.5,1.3,1.1,3,1.1,4.6c0,20.3,0,40.5,0,60.8
	C677,282.3,677.4,284.1,675.9,285.3z"/>
<path class="st9" d="M339,224.9c0.3,0.2,0.7,0.4,1,0.5c-1.1,1-2.5,0.8-3.8,0.8c-15.3,0-30.7,0-46,0c-1.5,0-3,0.3-4.2-1
	c0.4-0.2,0.7-0.3,1.1-0.5C304.3,224.8,321.7,224.9,339,224.9z"/>
<path class="st3" d="M732,202.9c0-0.5,0-1,0-1.6c5.1,0,10.2-0.2,15.3,0.1c3.4,0.2,5.6-0.7,6.6-4.1c0.2,1.7,0.3,3.5,0.5,5.2
	c-0.2,0.2-0.4,0.4-0.5,0.7l0,0C746.6,203.1,739.3,203,732,202.9z"/>
<path class="st11" d="M779,360.5c0.7-1.7-1.3-5.6,1.4-5.5c3.1,0.1,1,4,1.6,6.1c0.1,0.5,0.1,1,0,1.5c-0.1,1.5,0.4,3.9-1.8,3.9
	c-2,0-1-2.3-1.2-3.7C778.9,362.2,779,361.6,779,360.5z"/>
<path class="st9" d="M263,225.4c1.1-0.1,2.1-0.2,3.2-0.4c0.3,0,0.6,0,0.8,0.2C265.7,226.7,264.4,226.6,263,225.4z"/>
<path class="st3" d="M351,309.5c-0.3,0.1-0.7,0.2-1,0.3c-0.7-0.3-1-0.8-0.9-1.5C350,308.3,350.7,308.7,351,309.5z"/>
<path class="st9" d="M753.9,203.2c0.1,0.1,0.2,0.1,0.3,0.2C754.1,203.4,754,203.3,753.9,203.2C753.9,203.2,753.9,203.2,753.9,203.2z
	"/>
<path class="st0" d="M779,395.3c31.6,0,63.3,0,94.9,0c-1.4,1.3-3.2,0.8-4.8,0.8c-28.4,0-56.9,0-85.3,0
	C782.2,396.1,780.5,396.5,779,395.3z"/>
<path class="st3" d="M754,42.3c0.1,18.2,0.2,36.3,0.2,54.5c0,32.8-0.1,65.7-0.2,98.5c-1.5-1.5-0.9-3.5-0.9-5.2c0-47.5,0-95,0-142.5
	C753,45.8,752.5,43.8,754,42.3z"/>
<path class="st3" d="M722,24.4c3,0,5.9,0,8.9,0C728,25.8,725,25.8,722,24.4z"/>
<path class="st3" d="M279,24.4c1.3,0,2.6,0,3.9,0C281.7,25.6,280.4,25.6,279,24.4z"/>
<path class="st12" d="M67,300.4c0.6,0,1.3,0,1.9,0c1.4,0,2.8,0,4.1,0c0.6,0,1.2,0,1.9,0c4,0,8.1,0,12.1,0c6.6,0.5,13.2,0.5,19.9,0
	c1.7,0,3.4,0,5.1,0c2.3,0.7,1.7,2.5,1.7,4.1c0,24-0.1,47.9,0.1,71.9c0,3.4-1.1,4.1-4.2,4.1c-13.3-0.2-26.6,0-39.9-0.1
	c-1.6,0-3.9,0.8-4.1-2.1c0-25.3,0-50.6,0-75.9c0.2-0.5,0.3-1.1,0.5-1.6C66.4,300.7,66.8,300.6,67,300.4z M98.6,347.1
	c0.2-2,0.3-3.8,2.8-4.6c1.6-0.5,1.6-2.3,1-3.8c-0.5-1.3-1.7-1.4-2.9-1.4c-2.1,0.1-1.8,1.6-1.8,2.8C97.8,342.4,97.2,344.6,98.6,347.1
	z M89.8,346.4c-0.9-3.4-0.6-6.4-2.7-9.5c-1.3,3.6-2.3,6.7-2.2,10.5C86.5,346.3,86.7,341.4,89.8,346.4z M91.2,347.1
	c2.5-1,0.9-3.3,2.7-4.3c1.6-0.9-0.4-2.5-0.4-3.9c0-0.2-1.3-0.7-1.7-0.5c-1.4,0.8-0.6,2.2-0.7,3.4C91.1,343.4,91.2,345.1,91.2,347.1z
	"/>
<path class="st9" d="M65.6,302.3c0,25.3,0,50.6,0,75.9c-2.2-0.8-1.6-2.7-1.6-4.2c0-22.5,0-45,0-67.4C64,305,63.4,303.1,65.6,302.3z"
	/>
<path class="st11" d="M92.9,388.6c-0.5,2.1-1.7,3.6-4,3.5c-2.5-0.1-4-1.7-3.8-4.2c0.2-2,1.5-3.5,3.6-3.4
	C90.9,384.8,92.9,385.8,92.9,388.6z"/>
<path class="st9" d="M87.1,300.4c-4,0-8.1,0-12.1,0C79,298.6,83,298.6,87.1,300.4z"/>
<path class="st9" d="M112.1,300.4c-1.7,0-3.4,0-5.1,0C108.6,298.8,110.3,298.8,112.1,300.4z"/>
<path class="st9" d="M73.1,300.5c-1.4,0-2.8,0-4.1,0C70.3,298.9,71.7,298.9,73.1,300.5z"/>
<path class="st9" d="M67,300.4c-0.3,0.2-0.6,0.3-1,0.2C66.3,300.1,66.6,299.9,67,300.4z"/>
<path class="st13" d="M564,153.4c4.3-0.9,6.4,1,7.6,5c3.1,10.5,6.4,20.9,10.7,31.2c0-6,0-11.9,0-17.9c0-4.5-0.1-9,0-13.5
	c0.1-1.6-1.2-4.2,1.2-4.8c2.2-0.5,5.1-1.2,6.5,1.9c-0.1,0.3-0.1,0.7,0.1,1c0,16.3,0,32.7,0,49c-0.1,0.3-0.1,0.6,0,0.9
	c-0.1,1.6-0.3,3-2.5,2.8c-2.4-0.2-5.3,0.3-6.4-2.7c-1.5-4-2.9-8.1-4.1-12.2c-2.1-6.9-4.2-13.9-7.1-20.7c0,10,0,19.9,0,29.9
	c0,6-1.8,7.1-7.8,4.9c0.2-0.6,0.4-1.2,0.6-1.9c0.6-0.4,0.6-0.8,0-1.1c0-0.6,0-1.2,0-1.8c1.8-1.6,1.2-3.7,1.2-5.6
	C564,183,564,168.2,564,153.4z"/>
<path class="st11" d="M509,180.6c0-8,0.1-16-0.1-24c-0.1-2.7,0.6-3.9,3.5-3.9c4,0,8-0.5,12-0.5c6.9,0,11.5,3.7,12.6,10.4
	c1.9,12.2,2,24.5,0.1,36.7c-0.9,6-5.2,9.6-11.3,9.9c-4.5,0.2-9-0.2-13.5-0.1c-2.7,0.1-3.3-1.1-3.3-3.6
	C509.1,197.3,509,189,509,180.6z M516.8,201.2c-0.1,0.6-0.5,1.6-0.3,1.7c5.7,3.2,12.6-0.3,13.4-6.8c1.2-9.6,1.3-19.2,0.1-28.8
	c-1-7.9-5.9-10.4-13.7-7C516.5,174,516.6,187.6,516.8,201.2z"/>
<path class="st11" d="M500.3,181.5c-0.2,5.8-0.2,11.7-1.5,17.4c-1.6,7-6.2,10.5-13.6,10.6c-7.4,0-12.4-3.4-13.8-10.3
	c-2.4-11.5-2.4-23.2-0.1-34.7c1.7-8.7,6.4-12.4,14.4-12.2c7.5,0.2,11.6,4.2,13.3,12.9C500.1,170.5,500.1,176,500.3,181.5z
	 M478.1,170.3c0,0.7-0.1,1.3-0.1,2c-1.3,6.7-0.9,13.3,0.1,20c0.1,0.7,0.1,1.3,0.2,2c0.3,1.4,0.5,2.9,1,4.3c1,2.8,2.7,5,6.1,4.8
	c3.3-0.2,4.9-2.4,5.7-5.2c0.4-1.2,0.5-2.5,0.8-3.8c0.1-0.7,0.1-1.3,0.2-2c1.4-7.7,1.4-15.3-0.2-23c0-0.3-0.1-0.7-0.1-1
	c-0.3-2.4-0.8-4.7-2.6-6.6c0-0.2-0.1-0.4-0.3-0.4c-3.9-2.9-6.5-2.6-8.7,1.5C479,165.1,478,167.6,478.1,170.3z"/>
<path class="st13" d="M618.1,182.2c1.3-3,4-2.9,6.3-2.3c2.6,0.6,1.3,3.1,1.3,4.7c0.1,6.8,0,13.6,0.1,20.5c0,2.2-0.5,3.2-2.9,3.5
	c-4.1,0.5-8.3,1.1-12.4,0.8c-6.1-0.4-10.4-4.1-11.3-10c-1.9-12.1-1.9-24.2,0-36.3c1.3-8.1,7.5-12,15.7-10.3c2,0.4,3.9,0.8,5.8,1.3
	c1.3,0.3,3.4-0.1,3,2.3c-0.3,2-1,4.1-3.6,4c-2-0.1-4-0.3-5.9-0.7c-4.2-1-6.7,1-7.4,4.7c-2,11.2-2,22.5-0.1,33.7
	c0.9,5.1,3.4,6,9.9,4.7c3.1-2.8,0.5-6.3,1.1-9.4c0-2.7,0-5.3,0-8C618,184.3,618.1,183.3,618.1,182.2z"/>
<path class="st11" d="M445.9,181.7c0.2,4.7-0.1,9.7,0.9,14.7c0.9,4.4,3.2,6.4,7.7,5.8c1.6-0.2,3.3-0.5,5-0.5c1.5,0,4-1.6,4.1,1.7
	c0.1,2.3,0.9,4.9-3.2,5.3c-6.6,0.7-13.2,2.4-18.5-3.7c-1.7-1.9-2.4-3.9-2.7-6.2c-1.5-11.3-1.7-22.5-0.1-33.8
	c1.5-10.3,7.1-14,17.1-11.8c1.1,0.3,2.4,0.3,3.4,0.8c1.4,0.6,4.2-0.3,3.7,2.8c-0.4,2.5-1.6,4.4-4.5,4.4c-1.6,0-3.3-0.3-4.9-0.6
	c-3.7-0.8-5.7,0.8-6.6,4.2C445.6,170.2,446,175.8,445.9,181.7z"/>
<path class="st11" d="M418.3,153.8c-5.4,16.9-10.8,33.8-16.3,50.7c-1.7,5.4-3.5,10.7-5.3,16.1c-0.9,2.6-5.4,4.4-7.5,2.9
	c-1.8-1.3-0.1-2.7,0.3-3.9c6-19,12.1-37.9,18.2-56.9c0.4-1.3,0.8-2.5,1.2-3.8C410.8,152.6,410.8,152.6,418.3,153.8z"/>
<path class="st11" d="M554,205.3c0,0.7,0,1.3,0,2c-2.3,0-4.5,0-6.8,0c-0.2-0.7-0.4-1.4-0.6-2.1c0-17,0-34-0.1-51l0.4,0.1
	c1.1,0,2.2,0.1,2.9-0.9c3-0.6,4.3,0.5,4.3,3.6c-0.1,15.8-0.2,31.5-0.3,47.3c-0.1,0.1-0.3,0.2-0.3,0.3
	C553.8,204.8,553.9,205.1,554,205.3z"/>
<path class="st13" d="M385,167.9c-2.5,4.4-4.7,8.9-7.6,12.8c-3.1,4.1-2.8,7.5,0.1,11.6c2.6,3.6,4.5,7.7,6.9,11.9
	c-4.4,1.5-6.7,0.3-9.6-3.3c-7.8-9.9-7.9-18.8,0.1-28.8C377.9,168.4,380.2,166.6,385,167.9z"/>
<path class="st13" d="M632.9,204.4c2.9-5.2,5.5-10.2,8.5-14.9c1.5-2.4,1.3-4-0.1-6.2c-3.1-4.9-5.9-10-8.8-15.1
	c6.6-1.2,6-0.8,9.7,3.8c7.9,9.7,8.5,18.7,0.4,28.7C639.8,204,637.7,205.6,632.9,204.4z"/>
<path class="st10" d="M562.8,203.4c0,0.6,0,1.2,0,1.8c0,0.4,0,0.8,0,1.1c-0.2,0.6-0.4,1.2-0.6,1.9c-1.9-1.1-1.2-2.9-1.2-4.5
	c-0.1-15.3,0-30.6,0-45.8c0-1.7-0.7-3.8,1.7-4.7C562.8,170,562.8,186.7,562.8,203.4z"/>
<path class="st10" d="M339,224.9c-17.3-0.1-34.6-0.1-51.9-0.2c0.6-1.6,2-1.5,3.4-1.5c15,0,29.9,0,44.9,0
	C336.7,223.3,338.4,223,339,224.9z"/>
<path class="st10" d="M546.6,154.2c0,17,0,34,0.1,51c-2-0.6-1.7-2.2-1.7-3.7c0-14.5,0-29.1,0-43.6
	C545,156.5,544.8,154.9,546.6,154.2z"/>
<path class="st0" d="M562.8,203.4c0-16.7,0-33.4,0-50.1c0.4,0,0.8,0.1,1.2,0.1c0,14.8,0,29.6,0,44.4
	C564,199.7,564.6,201.8,562.8,203.4z"/>
<path class="st0" d="M547.2,207.3c2.3,0,4.5,0,6.8,0C551.8,209.5,550.9,209.5,547.2,207.3z"/>
<path class="st10" d="M618,193.3c-0.7,3.1,2,6.6-1.1,9.4C617.5,199.6,616,196.2,618,193.3z"/>
<path class="st10" d="M618.1,182.2c0,1-0.1,2-0.1,3C616.7,184.2,616.8,183.2,618.1,182.2z"/>
<path class="st0" d="M550,153.4c-0.8,1-1.9,0.9-2.9,0.9C547.5,152.4,548.9,153.5,550,153.4z"/>
<path class="st10" d="M590.1,206.3c-0.1-0.3-0.1-0.6,0-0.9c0.1,0.2,0.2,0.4,0.3,0.7C590.4,206.1,590.2,206.2,590.1,206.3z"/>
<path class="st10" d="M590.1,156.3c-0.1-0.3-0.2-0.6-0.1-1c0.1,0.2,0.3,0.4,0.4,0.7C590.4,156,590.2,156.2,590.1,156.3z"/>
<path class="st0" d="M554,205.3c-0.1-0.2-0.3-0.5-0.3-0.7c0-0.1,0.2-0.2,0.3-0.3C554,204.6,554,205,554,205.3z"/>
<path class="st11" d="M224.5,324.4c-11.5-0.1-11.5-0.1-11.5-11.8c0-1.8,0-3.7,0-5.5c0-8.1,1.8-9.5,9.8-7.9c1.1,0.2,2,0.4,1.8,1.8
	c-0.1,1.5-1.3,1.2-2.2,1.4c-1.8,0.4-4.5-1.2-5.2,1.2c-0.7,2.2-1.3,5.6,3.4,5.1c1.2-0.2,3.4-0.9,3.4,1.6c0,2.5-2.1,1.8-3.3,1.7
	c-5.2-0.6-3.2,3.2-3.6,5.6c-0.6,3.4,1.2,3.9,4,3.7c3.5-0.2,7,0,10.5-0.1c1.7,0,3.5,0,4.2-1.9c0.8-2,0.4-4-1.3-5.5
	c-2-1.7-4.2-3.3-6.1-5.1c-2.5-2.4-3.6-5.3-1.1-8.4c1.5-1.8,9.5-2,10.9-0.4c0.3,0.3,0.4,0.9,0.3,1.3c-0.3,0.9-1.1,1.1-1.9,1.3
	c-2.1,0.4-5.3-1.8-6,1.4c-0.5,2.7,2.9,3.7,4.6,5.3c1.3,1.2,2.9,2.3,3.9,3.8c3.4,4.8,0.5,11-5.2,11.4
	C230.9,324.6,227.7,324.4,224.5,324.4z"/>
<path class="st11" d="M266.8,323.3c0.1-7,0.1-14,0.2-21c0-1.1-0.8-2.8,1.4-3.1c1.6-0.2,2.5,0.5,3.1,1.9c1.6,4.1,3.3,8.2,5.7,12.2
	c0-3.9,0-7.7,0-11.6c0-1.5,0.2-2.7,2.1-2.6c1.6,0.1,1.8,1.2,1.8,2.4c0,6.8,0,13.6,0,20.5c0,1-0.1,2-1.5,2.1
	c-1.7,0.1-2.9-0.5-3.4-2.2c-1.5-4.3-2.9-8.7-4.4-13c-0.3,0.1-0.6,0.1-0.9,0.2c0,3.7-0.2,7.5,0.1,11.2c0.2,3.1-0.8,4.4-4,3.9
	C267,324,266.9,323.6,266.8,323.3z"/>
<path class="st11" d="M285.5,311.4c0.1-2,0.1-4,0.4-6c0.8-5.8,7-8.8,12.1-5.8c0.6,0.4,1.1,0.8,0.9,1.5c-0.3,1-1.1,1.1-1.9,1.2
	c-2.4,0.2-5.9-1.6-6.7,2.2c-1.1,5-1.4,10.2,0.6,15.2c0.7,1.6,2.4,1.5,4,1.3c1.7-0.3,1.3-1.6,1.3-2.7c0.1-2,0-4,0.1-6
	c0-1.5,0.9-2,2.3-2c1.4,0.1,1.6,1,1.6,2.1c0,3.2,0,6.3,0,9.5c0,1.4-0.6,2.1-2,2.3c-7.8,0.6-11.8,0.9-12.3-8.8c-0.1-1.3,0-2.7,0-4
	C285.6,311.4,285.5,311.4,285.5,311.4z"/>
<path class="st13" d="M173.9,331.1c-2,0-1.7-1-1.2-2.3c3.4-9.2,6.9-18.4,10.2-27.6c0.7-1.9,1.9-2.5,3.4-1.8c1.9,0.8,0.5,2.3,0.1,3.4
	c-3.1,8.4-6.2,16.8-9.4,25.2C176.4,329.6,176.1,331.4,173.9,331.1z"/>
<path class="st11" d="M251,313.3c0,2.7,0,5.3,0,8c0,1.6-0.1,3.1-2.3,3c-2.1-0.1-1.7-1.6-1.7-2.9c0-5.1-0.1-10.3,0-15.4
	c0-2.1,0.2-4.1-3-3.7c-0.9,0.1-1.6-0.2-1.7-1.3c-0.1-1.3,0.8-1.7,1.9-1.7c3,0,6,0,9,0c1.2,0,2.5-0.1,2.4,1.6c0,1.4-1.2,1.5-2.1,1.4
	c-2.5-0.3-2.6,1.1-2.6,3C251.1,308,251.1,310.7,251,313.3z"/>
<path class="st11" d="M200,302.5c-1.1-0.6-3.5,0.9-3.3-1.7c0.1-2.4,2.2-1.4,3.5-1.5c2.5-0.2,5-0.1,7.5,0c1,0,2.1,0,2.2,1.4
	c0.1,1.4-0.8,1.8-1.9,1.7c-3.2-0.4-2.9,1.7-2.8,3.7c0,4.8,0.1,9.6,0,14.5c0,1.5,0.7,3.6-1.9,3.8c-2.9,0.1-2-2.1-2-3.5
	c-0.1-5.5-0.2-11-0.2-16.4C201.1,303.5,201.4,302.5,200,302.5z"/>
<path class="st11" d="M262.9,312.1c0,3.3,0,6.6,0,9.9c0,1.3-0.2,2.3-1.8,2.3c-1.5,0-2.1-0.7-2.1-2.1c0-7,0-13.9,0-20.9
	c0-1.4,0.5-2.2,2.1-2c1.5,0.1,1.9,1.1,1.9,2.4C262.9,305.1,262.9,308.6,262.9,312.1z"/>
<path class="st11" d="M171.3,322c-4.3,0.1-10-5.6-10-8.5c0-2.5,5.5-8.2,9.6-8.5C164.9,310.6,163.7,316.2,171.3,322z"/>
<path class="st11" d="M303,305.3c4.1,0,9.3,5.6,9.2,8.3c-0.1,2.8-5.3,8.3-9,8.5C308.1,316.4,310.4,310.9,303,305.3z"/>
<path class="st10" d="M266.8,323.3c0.1,0.3,0.2,0.6,0.2,1c-0.4-0.1-0.8-0.2-1.2-0.3C266.2,323.7,266.5,323.5,266.8,323.3z"/>
<path class="st10" d="M200,302.5c1.4,0,1,1,0.9,1.8C200.6,303.7,200.3,303.1,200,302.5z"/>
<path class="st13" d="M744.3,312.1c4.1,0.4,7.6,0.8,11.1,1.2c1.2,0.1,2.5-0.1,2.4,1.7c-0.1,1.3-1.2,1.5-2.2,1.4
	c-5.3-0.4-10.6-0.9-15.9-1.4c-1.7-0.2-2-1.7-0.8-2.4c3.4-2.1,1.2-3.1-0.4-5c-3.3-3.8-3.4-16.4-0.4-20.6c2.9-4.1,10.8-3.7,12.6,1
	c2.2,5.9,2.1,12,0.2,18.1C749.9,309,746.6,309.5,744.3,312.1z M748.1,297.3c0.1,0,0.1,0,0.2,0c-0.2-2-0.2-4-0.6-5.9
	c-0.3-1.9-1.3-3.6-3.4-3.7c-2.2,0-3,1.6-3.6,3.5c-0.8,3.1-0.7,6.3-0.5,9.4c0.2,2.7,0.4,6,3.9,6c3.8,0,3.9-3.4,4-6.3
	C748.2,299.3,748.1,298.3,748.1,297.3z"/>
<path class="st13" d="M771.1,307.8c0.4,0.8,0.6,1.7-0.6,1.9c-1.2,0.3-2.5,0.2-3.1-1c-0.6-1.2-0.9-2.5-1.1-3.8
	c-0.4-2.1-1.7-2.5-3.6-2.5c-2,0-2.5,1.2-2.8,2.8c-0.2,1-0.5,1.9-0.7,2.9c-0.2,1.5-1.3,1.8-2.5,1.7c-1.5-0.2-1.9-1.2-1.6-2.5
	c1.8-6.9,3.7-13.8,5.5-20.7c0.3-1.3,1.1-1.9,2.5-1.9c1.4,0,2.2,0.6,2.5,1.9C767.4,293.6,769.2,300.7,771.1,307.8z M763,292.7
	c-0.9,2-1.8,4-1,6.1c0.1,0.3,1.6,0.4,1.8,0.1C765.5,296.7,763.6,294.8,763,292.7z"/>
<path class="st13" d="M725.7,285.9c-0.3,0.7-0.5,1.3-0.7,1.9c-3.3,8.7-6.6,17.4-9.7,26.1c-0.7,1.9-1.7,3.1-3.5,2.3
	c-2.1-0.9-0.3-2.5,0.1-3.7c3-8.4,6.2-16.8,9.2-25.3c0.5-1.5,1-2.8,3-2.7C724.9,284.7,725.7,284.8,725.7,285.9z"/>
<path class="st13" d="M708,291.7c0.2,1.3-0.8,2.2-1.5,3c-3.2,3.6-4,7,0.4,10.4c0.7,0.5,1.7,1.4,0.8,2.5c-0.3,0.4-1.3,0.4-1.9,0.3
	c-2.1-0.5-6.4-6.6-6-8.5C700.5,296.1,705.2,291.7,708,291.7z"/>
<path class="st13" d="M772.6,307.8c8.7-5.8,6-10.9,1.2-16.1c3.5-0.2,9.1,5.4,9.1,8.3C782.9,302.6,777.6,307.4,772.6,307.8z"/>
<path class="st11" d="M827.9,352.1c1.6,2.8,0.9,5.8,1.1,8.7c0.1,1.4-0.3,3.4,1.9,3.3c1.7-0.1,1.7-1.7,1.8-3.1
	c0.3-2.9-0.6-5.8,1.2-8.6c1.3,3.8,1.3,7.8,0.6,11.7c-0.4,1.8-2.3,2.2-4.1,2.1c-1.6-0.1-3.1-0.7-3.3-2.5
	C826.9,359.8,826.5,355.9,827.9,352.1z"/>
<path class="st11" d="M812.7,369.1c2.2-5.8,4.3-11.6,6.5-17.5c0.6,0.2,1.2,0.5,1.8,0.7c-2.1,5.8-4.2,11.7-6.4,17.5
	C814,369.6,813.4,369.4,812.7,369.1z"/>
<path class="st11" d="M837.2,365.8c0-3.8,0-7.5,0-11.3c0-0.9-0.3-2.2,1.2-2.1c1.1,0.1,1.1,1.1,1,1.9c-0.3,3.9,0.6,7.9-0.5,11.7
	C838.3,366,837.7,365.9,837.2,365.8z"/>
<path class="st11" d="M841.9,355.6c5.4,3.4,5.5,4.8,0.3,9.4C843.7,361.8,844.7,358.6,841.9,355.6z"/>
<path class="st11" d="M811,355.6c-2,3.1-2.6,6.1,0.4,9.1C805.8,361,805.8,359.8,811,355.6z"/>
<path class="st13" d="M98.6,347.1c-1.4-2.4-0.8-4.7-0.8-6.9c0-1.3-0.3-2.8,1.8-2.8c1.2,0,2.3,0,2.9,1.4c0.6,1.5,0.6,3.3-1,3.8
	C98.9,343.2,98.8,345,98.6,347.1z"/>
<path class="st13" d="M89.8,346.4c-3.2-5-3.3,0-4.9,1c-0.1-3.8,0.8-6.9,2.2-10.5C89.2,340,88.9,342.9,89.8,346.4z"/>
<path class="st13" d="M91.2,347.1c0-2-0.1-3.7,0-5.4c0.1-1.2-0.7-2.6,0.7-3.4c0.4-0.2,1.7,0.4,1.7,0.5c-0.1,1.4,2,3,0.4,3.9
	C92.1,343.8,93.7,346.1,91.2,347.1z"/>
<path class="st0" d="M562.8,206.4c0-0.4,0-0.8,0-1.1C563.4,205.6,563.5,205.9,562.8,206.4z"/>
<path class="st12" d="M516.4,160.3c7.8-3.4,12.7-0.9,13.7,7c1.2,9.6,1.1,19.2-0.1,28.8c-0.8,6.5-7.8,9.9-13.4,6.8
	c-0.2-0.1,0.2-1.1,0.3-1.7c1.1-0.5,1.2-1.5,1.2-2.5c0-11.7,0-23.5,0-35.2C518,162.2,518.1,160.8,516.4,160.3z"/>
<path class="st10" d="M516.4,160.3c1.7,0.5,1.6,1.8,1.6,3.2c0,11.7,0,23.5,0,35.2c0,1-0.1,2-1.2,2.5
	C516.6,187.6,516.5,174,516.4,160.3z"/>
<path class="st6" d="M488.8,161.3c0.2,0.1,0.3,0.2,0.3,0.4c0.1,2.5-0.2,5.1,2.6,6.6c0,0.3,0.1,0.7,0.1,1c-1,7.7-2.7,15.4,0.2,23
	c-0.1,0.7-0.1,1.3-0.2,2c-1.1,0.2-1.6,0.9-2.2,1.8c-2.7,4-6.8,3.9-9.6-0.2c-0.5-0.7-0.9-1.3-1.8-1.5c-0.1-0.7-0.1-1.3-0.2-2
	c2-6,0.1-12.3,1.5-18.3c0.1-0.4-1-1.1-1.6-1.7c0-0.7,0.1-1.3,0.1-2c1.5-0.1,2.1-1.4,3.1-2.1C484,166.1,484.6,161.7,488.8,161.3z"/>
<path class="st12" d="M478.3,194.3c0.9,0.2,1.3,0.8,1.8,1.5c2.7,4.1,6.9,4.2,9.6,0.2c0.6-0.9,1.1-1.6,2.2-1.8
	c-0.3,1.3-0.4,2.6-0.8,3.8c-0.8,2.9-2.4,5.1-5.7,5.2c-3.3,0.2-5-2-6.1-4.8C478.8,197.2,478.6,195.7,478.3,194.3z"/>
<path class="st12" d="M488.8,161.3c-4.2,0.4-4.9,4.8-7.7,6.9c-1,0.7-1.6,2-3.1,2.1c-0.1-2.7,0.8-5.2,2.1-7.5
	C482.3,158.7,484.9,158.4,488.8,161.3z"/>
<path class="st12" d="M492.1,192.3c-2.8-7.6-1.1-15.3-0.2-23C493.4,177,493.4,184.6,492.1,192.3z"/>
<path class="st12" d="M478,172.3c0.6,0.6,1.7,1.3,1.6,1.7c-1.4,6,0.5,12.3-1.5,18.3C477.1,185.6,476.7,179,478,172.3z"/>
<path class="st12" d="M491.8,168.3c-2.8-1.4-2.5-4.1-2.6-6.6C491,163.5,491.5,165.9,491.8,168.3z"/>
<path class="st12" d="M748.1,297.3c0,1,0,2,0,3c-0.2,2.9-0.2,6.3-4,6.3c-3.4,0-3.7-3.3-3.9-6c-0.2-3.1-0.3-6.3,0.5-9.4
	c0.5-1.9,1.4-3.6,3.6-3.5c2.2,0,3.1,1.8,3.4,3.7c0.3,2,0.4,4,0.6,5.9C748.2,297.3,748.2,297.3,748.1,297.3z"/>
<path class="st12" d="M763,292.7c0.5,2.1,2.5,4,0.8,6.2c-0.2,0.3-1.7,0.2-1.8-0.1C761.2,296.7,762.2,294.7,763,292.7z"/>
</svg>
