<svg xmlns="http://www.w3.org/2000/svg" viewBox="0 0 437.54 74.97">
	<defs>
		<style type="text/css">
			.dc9ef6a3-7f2c-4026-880e-324e8732b27a{
				isolation:isolate;
			}
			
		    .name{
		      stroke: #FFFFFF;
		      fill:#FFFFFF;
		      stroke-dasharray: 600;
		      animation: nameAnimation 6s 1;
		    }
		    @keyframes nameAnimation{
		      0%{stroke-dashoffset:600;fill:none;}
		      40%{fill:rgba(255, 255, 255,0);}
		      100%{ 
		        stroke-dashoffset:0;
		        fill:rgba(255, 255, 255,0.9);
		      }
		    }
		</style>
	</defs>
	<title>name</title>
	<g id="7ceacd05-bd1d-4d2e-8542-fb887b81375a" data-name="Layer 2">
		<g id="4c8bcc4a-63da-48dc-841d-0dcd28186878" data-name="Layer 1">
			<g class="dc9ef6a3-7f2c-4026-880e-324e8732b27a">
				<path class="name" d="M22.72,73.75H19.91L0,4H4.22L20,60.18a48.19,48.19,0,0,1,1.41,6.62h.15a61,61,0,0,1,1.56-6.71L39.85,4h4Z"/>
				
				<path class="name" d="M53.37,11.38a2.55,2.55,0,0,1-2-1.07,4.16,4.16,0,0,1-.87-2.72A3.75,3.75,0,0,1,51.38,5a2.64,2.64,0,0,1,2-1,2.74,2.74,0,0,1,2.07,1,3.74,3.74,0,0,1,.89,2.63,4.21,4.21,0,0,1-.87,2.68A2.59,2.59,0,0,1,53.37,11.38ZM51.66,73.75V23.94h3.5V73.75Z"/>

				<path class="name" d="M80.38,73.75H77.19l-15-49.82h3.91L77.65,63.58a39.16,39.16,0,0,1,1.18,5.21H79a37,37,0,0,1,1.1-5L92,23.94h3.8Z"/>

				<path class="name" d="M103.71,49q0,10.26,3.7,16.05a11.49,11.49,0,0,0,10.16,5.79q6.53,0,12.76-6.18v4.77A19.55,19.55,0,0,1,116.85,75q-7.52,0-12.16-6.91t-4.63-19.51q0-10.9,4.84-18.37t12.59-7.47q7.26,0,11.13,6.52T132.5,47v2ZM128.85,45q-.23-8.61-3.23-13.38a9.32,9.32,0,0,0-8.28-4.77,11,11,0,0,0-9.06,4.69q-3.59,4.7-4.43,13.45Z"/>

				<path class="name" d="M164.41,73.75,145.8,49.13h-.15V73.75h-3.5V0h3.5V47.53h.15l17.66-23.59H168L149.52,48.06l19.94,25.69Z"/>

				<path class="name" d="M202.51,45.78v28h-3.76V4H211.9q8.4,0,12.84,5t4.44,14.57q0,9.73-5,16t-13.88,6.25Zm0-37.36V41.35h7.75q7.37,0,11.21-4.5t3.84-12.72q0-15.71-14.09-15.71Z"/>
				
				<path class="name" d="M258.66,28.6a5.87,5.87,0,0,0-4.1-1.61q-4.6,0-7.71,6.08t-3.11,17.27v23.4h-3.42V23.94h3.42V35h.15a19.47,19.47,0,0,1,4.22-8.85A8.81,8.81,0,0,1,254.78,23a8.38,8.38,0,0,1,3.88.88Z"/>
				
				<path class="name" d="M289.24,73.75v-10h-.15a19,19,0,0,1-5.41,8.15,11.84,11.84,0,0,1-7.88,3A10.69,10.69,0,0,1,267,71a15.49,15.49,0,0,1-3.23-10.07q0-13,13.49-15.76l12-2.29q0-16.05-9.42-16.05-6.42,0-12.5,6.62V28a20.36,20.36,0,0,1,12.84-5.3,10.63,10.63,0,0,1,9.29,4.77q3.29,4.77,3.29,13.87v32.4ZM278.53,48.94q-6.12,1.12-8.58,3.62t-2.47,8.15a11.31,11.31,0,0,0,2.3,7.3,7.74,7.74,0,0,0,6.4,2.87q5.62,0,9.34-5.33t3.72-13.74V46.95Z"/>

				<path class="name" d="M326.7,73.75,308.08,49.13h-.15V73.75h-3.49V0h3.49V47.53h.15l17.66-23.59h4.52L311.81,48.06l19.94,25.69Z"/>

				<path class="name" d="M362.21,73.75v-10h-.15a19,19,0,0,1-5.41,8.15,11.84,11.84,0,0,1-7.88,3A10.69,10.69,0,0,1,340,71a15.49,15.49,0,0,1-3.23-10.07q0-13,13.49-15.76l12-2.29q0-16.05-9.42-16.05-6.42,0-12.5,6.62V28a20.36,20.36,0,0,1,12.84-5.3,10.63,10.63,0,0,1,9.29,4.77q3.29,4.77,3.29,13.87v32.4ZM351.5,48.94q-6.12,1.12-8.58,3.62t-2.47,8.15a11.31,11.31,0,0,0,2.3,7.3,7.74,7.74,0,0,0,6.4,2.87q5.62,0,9.34-5.33t3.72-13.74V46.95Z"/>

				<path class="name" d="M375.4,71.56v-5.4a14.23,14.23,0,0,0,4.79,3.45A12.21,12.21,0,0,0,385,70.88q9.16,0,9.16-9.58a8.35,8.35,0,0,0-2-5.64,23.84,23.84,0,0,0-6.53-4.82q-5.58-3.11-7.84-6.45a14.09,14.09,0,0,1-2.26-8.1,13.53,13.53,0,0,1,3.63-9.83,12,12,0,0,1,8.95-3.75,14.09,14.09,0,0,1,8.59,2.63V30.4a13.91,13.91,0,0,0-9-3.6,8,8,0,0,0-6.19,2.55A9.4,9.4,0,0,0,379.2,36a10.18,10.18,0,0,0,1.48,5.76q1.48,2.21,6.53,5.08,6.08,3.5,8.36,6.49a12.8,12.8,0,0,1,2.28,8,14.11,14.11,0,0,1-3.48,9.8Q390.9,75,384.78,75A13.45,13.45,0,0,1,375.4,71.56Z"/>

				<path class="name" d="M434.05,73.75V43.88q0-8.85-2.51-13a8.51,8.51,0,0,0-7.83-4.11q-5,0-8.81,5t-3.8,14.35V73.75h-3.49V0h3.49V32.89h.15q4.6-10.17,13.37-10.17a10.69,10.69,0,0,1,9.61,5.21q3.3,5.21,3.3,14.93V73.75Z"/>
			</g>
		</g>
	</g>
</svg>