<?xml version="1.0" encoding="utf-8"?>
<!-- Generator: Adobe Illustrator 19.2.1, SVG Export Plug-In . SVG Version: 6.00 Build 0)  -->
<svg version="1.1" id="Layer_1" xmlns="http://www.w3.org/2000/svg" xmlns:xlink="http://www.w3.org/1999/xlink" x="0px" y="0px"
	 viewBox="0 0 640 85" style="enable-background:new 0 0 640 85;" xml:space="preserve">
<style type="text/css">
   .qd{
      stroke: #FFFFFF;
      fill:#FFFFFF;
      stroke-dasharray: 600;
      animation: qdAnimation 7s 1;
    }
    @keyframes qdAnimation{
      0%{stroke-dashoffset:600;fill:none;}
      40%{fill:rgba(255, 255, 255,0);}
      100%{ 
        stroke-dashoffset:0;
        fill:rgba(255, 255, 255,0.9);
      }
    }
</style>
<g>
	<path class="qd" d="M40.2,73.5c-8.6,0-15.5-2.9-20.6-8.6C14.5,59.2,12,51.7,12,42.6c0-9.7,2.6-17.5,7.9-23.3
		c5.3-5.8,12.4-8.8,21.5-8.8c8.2,0,14.9,2.8,19.9,8.4c5.1,5.6,7.6,13,7.6,22.1c0,10.1-2.6,18-7.8,23.8c-1.6,1.8-3.4,3.3-5.4,4.5
		l14.8,11.3h-7.1l-11.5-9.3C48.4,72.8,44.6,73.5,40.2,73.5z M40.6,14.3c-7.1,0-12.9,2.6-17.5,7.7c-4.6,5.1-6.9,11.8-6.9,20.1
		c0,8.4,2.2,15.1,6.5,20c4.3,5,10.1,7.5,17.3,7.5c7.5,0,13.5-2.5,17.9-7.4c4.4-4.9,6.6-11.8,6.6-20.5c0-8.6-2.1-15.3-6.4-20.2
		C53.9,16.7,48,14.3,40.6,14.3z"/>
	<path class="qd" d="M108.6,72.4v-7.9h-0.2c-3,6-7.7,9-14,9C84.1,73.5,79,67,79,54.1V28.9h4v24.2c0,5.9,1,10.2,2.9,12.8
		c1.9,2.7,5,4,9.2,4c4,0,7.3-1.5,9.8-4.5c2.5-3,3.8-6.9,3.8-11.9V28.9h3.9v43.5H108.6z"/>
	<path class="qd" d="M152.5,72.4v-8.7h-0.2c-1.4,3-3.4,5.3-6.1,7.1c-2.6,1.8-5.6,2.7-8.8,2.7c-4.1,0-7.4-1.2-9.8-3.5
		c-2.4-2.3-3.6-5.3-3.6-8.8c0-7.6,5-12.2,15.1-13.8l13.4-2c0-9.3-3.5-14-10.5-14c-4.8,0-9.4,1.9-14,5.8v-4.7
		c1.6-1.3,3.8-2.4,6.6-3.3c2.8-0.9,5.4-1.4,7.8-1.4c4.5,0,7.9,1.4,10.4,4.2c2.4,2.8,3.7,6.8,3.7,12.1v28.3H152.5z M140.5,50.8
		c-4.6,0.7-7.8,1.7-9.6,3.2c-1.8,1.5-2.8,3.8-2.8,7.1c0,2.6,0.9,4.7,2.6,6.4s4.1,2.5,7.2,2.5c4.2,0,7.7-1.5,10.5-4.7
		c2.8-3.1,4.2-7.1,4.2-12V49L140.5,50.8z"/>
	<path class="qd" d="M200.3,72.4v-7.9h-0.2c-1.4,2.7-3.5,4.9-6.3,6.5c-2.8,1.6-5.9,2.4-9.4,2.4c-5.4,0-9.7-2-13.1-5.9
		s-5.1-9.3-5.1-16.2c0-7,1.8-12.7,5.5-17.1c3.7-4.3,8.5-6.5,14.4-6.5c6.5,0,11.2,2.7,13.9,8h0.2V8h3.9v64.4H200.3z M200.3,46
		c0-4-1.3-7.5-3.8-10.3c-2.6-2.8-6-4.2-10.3-4.2c-4.6,0-8.3,1.7-11.3,5.2s-4.5,8.3-4.5,14.4c0,6,1.3,10.6,4,13.9
		c2.7,3.3,6.1,4.9,10.3,4.9c5,0,8.8-1.5,11.5-4.6c2.7-3.1,4.1-6.8,4.1-11.2V46z"/>
	<path class="qd" d="M238.7,33c-1.3-0.9-2.8-1.4-4.6-1.4c-3.4,0-6.3,1.8-8.6,5.3c-2.3,3.5-3.5,8.6-3.5,15.1v20.4h-3.8V28.9h3.8v9.6
		h0.2c1-3.3,2.6-5.9,4.7-7.7c2.2-1.8,4.6-2.8,7.5-2.8c1.6,0,3.1,0.3,4.3,0.8V33z"/>
	<path class="qd" d="M248.8,18c-0.8,0-1.6-0.3-2.3-0.9c-0.7-0.6-1-1.4-1-2.4c0-0.9,0.3-1.7,1-2.3c0.7-0.6,1.4-0.9,2.2-0.9
		c0.9,0,1.6,0.3,2.3,0.8c0.7,0.6,1,1.3,1,2.3c0,0.9-0.3,1.7-1,2.3C250.5,17.6,249.7,18,248.8,18z M246.9,72.4V28.9h3.9v43.5H246.9z"
		/>
	<path class="qd" d="M279,72.4h-3.6l-16.8-43.5h4.4l13,34.6c0.6,1.7,1.1,3.2,1.3,4.5h0.2c0.4-1.8,0.8-3.2,1.2-4.4L292,28.9h4.2
		L279,72.4z"/>
	<path class="qd" d="M306.1,18c-0.8,0-1.6-0.3-2.3-0.9c-0.7-0.6-1-1.4-1-2.4c0-0.9,0.3-1.7,1-2.3c0.7-0.6,1.4-0.9,2.2-0.9
		c0.9,0,1.6,0.3,2.3,0.8c0.7,0.6,1,1.3,1,2.3c0,0.9-0.3,1.7-1,2.3C307.8,17.6,307,18,306.1,18z M304.2,72.4V28.9h3.9v43.5H304.2z"/>
	<path class="qd" d="M350.7,72.4v-7.9h-0.2c-3,6-7.7,9-14,9c-10.3,0-15.4-6.5-15.4-19.4V28.9h4v24.2c0,5.9,1,10.2,2.9,12.8
		c1.9,2.7,5,4,9.2,4c4,0,7.3-1.5,9.8-4.5c2.5-3,3.8-6.9,3.8-11.9V28.9h3.9v43.5H350.7z"/>
	<path class="qd" d="M423.1,72.4V46.3c0-5.5-0.9-9.3-2.6-11.5s-4.4-3.3-8.1-3.3c-3.4,0-6.4,1.5-8.9,4.4c-2.5,2.9-3.7,6.6-3.7,11.1
		v25.5h-3.9V46c0-9.7-3.7-14.5-11-14.5c-3.5,0-6.5,1.5-8.8,4.4c-2.4,3-3.5,6.8-3.5,11.5v25.1h-3.9V28.9h3.9v7.2h0.2
		c3-5.5,7.5-8.3,13.3-8.3c3.2,0,5.9,0.9,8.1,2.7c2.3,1.8,3.8,4.2,4.6,7.2c1.4-3.1,3.3-5.6,5.8-7.3c2.5-1.7,5.3-2.6,8.3-2.6
		c9.5,0,14.3,5.9,14.3,17.7v26.9H423.1z"/>
	<path class="qd" d="M464.7,72.4V11.5H480c10.1,0,17.8,2.5,23.1,7.6c5.3,5,7.9,12.4,7.9,22c0,9.3-2.8,16.8-8.5,22.6
		c-5.7,5.8-13.4,8.7-23.4,8.7H464.7z M468.9,15.4v53.2h9.6c9,0,16-2.3,20.8-7c4.8-4.7,7.3-11.4,7.3-20.3c0-17.3-9.1-25.9-27.2-25.9
		H468.9z"/>
	<path class="qd" d="M523.4,50.8c0,6,1.4,10.6,4.1,14c2.8,3.4,6.5,5.1,11.4,5.1c4.9,0,9.6-1.8,14.3-5.4v4.2
		c-4.5,3.2-9.5,4.8-15.1,4.8c-5.6,0-10.1-2-13.6-6c-3.5-4-5.2-9.7-5.2-17c0-6.3,1.8-11.7,5.4-16c3.6-4.3,8.3-6.5,14.1-6.5
		c5.4,0,9.6,1.9,12.4,5.7c2.9,3.8,4.3,9,4.3,15.5v1.7H523.4z M551.6,47.3c-0.2-5-1.4-8.9-3.6-11.7c-2.2-2.8-5.3-4.2-9.3-4.2
		c-4.1,0-7.5,1.4-10.1,4.1c-2.7,2.7-4.3,6.6-4.9,11.7H551.6z"/>
	<path class="qd" d="M580.7,72.4h-3.6l-16.8-43.5h4.4l13,34.6c0.6,1.7,1.1,3.2,1.3,4.5h0.2c0.4-1.8,0.8-3.2,1.2-4.4l13.4-34.8h4.2
		L580.7,72.4z"/>
	<path class="qd" d="M603.6,70.5v-4.7c1.5,1.3,3.3,2.3,5.4,3c2.1,0.7,3.9,1.1,5.4,1.1c6.8,0,10.2-2.8,10.2-8.4
		c0-1.9-0.8-3.6-2.3-4.9c-1.5-1.4-3.9-2.8-7.3-4.2c-4.2-1.8-7.1-3.7-8.8-5.6c-1.7-1.9-2.5-4.3-2.5-7.1c0-3.5,1.4-6.4,4.1-8.6
		c2.7-2.2,6-3.3,10-3.3c3.7,0,6.9,0.8,9.6,2.3v4.4c-3.2-2.1-6.6-3.1-10-3.1c-2.9,0-5.2,0.7-6.9,2.2c-1.8,1.5-2.6,3.4-2.6,5.8
		c0,2.1,0.6,3.7,1.7,5s3.5,2.8,7.3,4.4c4.5,2,7.6,3.9,9.3,5.7c1.7,1.7,2.5,4.1,2.5,6.9c0,3.5-1.3,6.3-3.9,8.6
		c-2.6,2.3-6.2,3.4-10.7,3.4C609.9,73.5,606.4,72.5,603.6,70.5z"/>
</g>
</svg>
